<svg width="436" height="436" viewBox="0 0 436 436" fill="none" xmlns="http://www.w3.org/2000/svg">
<g clip-path="url(#clip0)">
<path d="M397.584 56.432C372.506 31.354 338.547 17.248 302.498 17.248C271.673 17.248 242.416 27.697 218.384 46.505C194.351 27.697 165.094 17.248 134.27 17.248C98.221 17.248 64.262 31.354 39.184 56.432C-13.061 108.677 -13.061 193.836 39.184 246.081L206.89 413.787C210.025 416.922 214.204 418.489 217.861 418.489C222.041 418.489 225.698 416.922 228.832 413.787L396.538 246.603C421.616 221.003 435.722 187.044 435.722 151.517C436.245 115.468 422.661 82.032 397.584 56.432Z" fill="#FF2A63"/>
</g>
<defs>
<clipPath id="clip0">
<rect width="435.737" height="435.737" fill="white"/>
</clipPath>
</defs>
</svg>
